<svg height='100px' width='100px'  fill="#000000" xmlns="http://www.w3.org/2000/svg" xmlns:xlink="http://www.w3.org/1999/xlink" version="1.1" x="0px" y="0px" viewBox="0 0 100 100" enable-background="new 0 0 100 100" xml:space="preserve"><path d="M95.48,28.548c-0.017-1.541-1.284-2.812-2.825-2.829l-39.723-0.526c-1.259,0-2.718,0.723-3.471,1.721l-0.18,0.235  l-0.18-0.244c-0.736-0.997-2.226-1.763-3.462-1.789L18.915,24.58h-0.056c-1.511,0-2.791,1.182-2.91,2.688l-2.542,31.509  c-0.099,1.246,0.543,2.8,1.494,3.617l1.079,0.925l-8.74,4.031c-0.732,0.343-1.246,0.954-1.413,1.691  c-0.163,0.735,0.042,1.51,0.565,2.127l1.836,2.183c0.654,0.774,1.742,1.258,2.842,1.258c0.347,0,0.681-0.051,0.988-0.149  l21.751-6.874c0.886-0.277,2.221-0.835,3.043-1.267l5.966-3.142c0.586-0.308,1.717-0.621,2.376-0.659l44.688-2.457  c1.507-0.081,2.752-1.326,2.838-2.833l0.03-0.569c0.013-0.227,0.243-0.467,0.41-0.483c1.481-0.15,2.629-1.46,2.611-2.979  L95.48,28.548z"></path></svg>