<svg height='100px' width='100px'  fill="#000000" xmlns="http://www.w3.org/2000/svg" xmlns:xlink="http://www.w3.org/1999/xlink" version="1.1" x="0px" y="0px" viewBox="0 0 100 100" enable-background="new 0 0 100 100" xml:space="preserve"><path d="M91.622,59.062l-0.296-3.028c-0.097-0.976-0.604-2.367-1.158-3.174l-1.344-1.951c-0.572-0.833-1.771-1.741-2.728-2.069  l-0.537-0.183c-0.411-0.143-0.825-0.215-1.193-0.215c-1.147,0-1.399,0.709-1.45,0.924c-0.108,0.476-0.035,0.925,0.201,1.234  c0.18,0.231,0.44,0.371,0.723,0.389c0.143,0.03,0.699,0.202,1.438,0.508c0.468,0.193,0.976,0.893,1.046,1.438l0.134,1.051  c0.199,1.551,0.895,1.782,1.293,1.782c0.011,0.059,0.021,0.123,0.032,0.196l0.118,0.878c0.062,0.466-0.279,1.043-0.718,1.212  l-1.988,0.767c-0.761,0.29-1.852,0.833-2.365,1.23c-0.115,0.089-0.238,0.132-0.314,0.143c-0.526-0.328-1.625-0.637-2.166-0.764  l-1.566-0.362c-0.69-0.161-1.516-0.69-1.792-1.059c-0.253-0.339-0.387-0.675-0.414-0.817c0.229-0.798-0.365-2.139-0.491-2.413  l-0.07-0.15c-0.545-1.169-1.12-1.76-1.715-1.76h-0.023c-0.17-0.073-0.572-0.307-1.032-0.691l-0.255-0.215  c-0.336-0.279-0.422-0.846-0.183-1.214l0.099-0.153c0.656-1.013,0.543-2.51-0.261-3.41l-3.246-3.639  c-0.72-0.806-2.037-1.416-3.061-1.416c-0.626,0-1.241-0.296-1.352-0.449c-0.103-0.143-0.14-0.57,0.021-0.847  c0.353-0.602,0.594-1.564,0.397-2.273c0.035-0.142,0.25-0.524,0.68-0.852l1.39-1.051c0.623-0.473,1.046-1.11,1.121-1.701  c0.034-0.255,0.005-0.5-0.084-0.717c0.084-0.059,0.213-0.129,0.396-0.191l2.904-0.986c1.104-0.376,2.026-1.421,2.142-2.432  c0.065-0.57-0.069-1.075-0.381-1.422c-0.366-0.414-0.946-0.551-1.505-0.352c-0.032,0.014-0.132,0.043-0.31,0.043  c-0.319,0-0.683-0.097-0.899-0.237c-0.307-0.196-0.745-0.935-0.855-1.588l-0.483-2.899c-0.201-1.226-1.384-2.171-2.622-2.104  l-1.178,0.065c-1.062,0.056-2.349,0.628-2.996,1.327c-0.35,0.376-1.12,0.731-1.588,0.731c-1.104,0-2.08,0.817-2.223,1.86  c-0.034,0.242-0.161,0.395-0.223,0.435h-0.035c-0.723,0-1.562,0.424-1.983,1.002c-0.109,0.115-0.645,0.331-1.273,0.331  c-0.035,0-0.072,0-0.107-0.003L9.91,25.861c-1.226-0.054-2.429,0.831-2.747,2.013l-5.42,20.114  c-0.169,0.626-0.062,1.266,0.295,1.755c0.357,0.486,0.933,0.785,1.58,0.814l13.874,0.642c0.347,0.016,0.599,0.089,0.739,0.15  c0.097,0.637,0.634,1.195,1.352,1.368c0.121,0.026,0.245,0.042,0.365,0.042c0.745,0,1.341-0.537,1.44-1.271  c0.107-0.064,0.354-0.153,0.712-0.153l31.013,0.742c0.406,0.011,0.747,0.359,0.747,0.766v1.115c0,1.241,0.503,2.146,1.252,2.313  c0.054,0.132,0.118,0.39,0.107,0.736l-0.011,0.476c-0.029,1.158,0.67,2.421,1.629,2.938c0.486,0.261,1.048,0.97,1.177,1.485  c0.215,0.863,0.809,1.819,1.626,1.983c0.089,0.11,0.258,0.422,0.317,0.9l0.263,2.102c0.14,1.112,1.043,1.918,2.147,1.918  c0.175,0,0.35-0.021,0.521-0.062l1.741-0.405c1.324-0.31,2.136-1.121,1.975-1.97c-0.023-0.127,0.049-0.546,0.215-0.801  c0.089-0.127,0.557-0.377,1.021-0.396c0.94-0.035,2.069-0.803,2.628-1.792l0.506-0.897c0.273-0.484,0.723-0.726,0.895-0.729  c0.107,0.046,0.35,0.419,0.33,0.938l-0.086,2.306c-0.023,0.624-0.47,1.564-0.938,1.976l-0.804,0.706  c-0.577,0.511-1.655,1.229-2.351,1.564l-1.483,0.72c-0.455,0.221-1.14,0.554-0.976,1.258c0.072,0.325,0.368,0.65,0.859,0.65  c0.124,0,0.32-0.016,0.779-0.143l1.188-0.325c0.914-0.252,2.223-0.892,2.98-1.459l1.73-1.292c0.549-0.409,1.629-0.788,2.312-0.812  l0.397-0.014c1.056-0.035,2.416-0.632,3.16-1.384l0.739-0.75c0.473-0.481,1.475-0.986,2.142-1.086l6.057-0.889  c0.354-0.052,0.755-0.052,0.968-0.024c-0.014,0.25-0.075,0.65-0.218,1.102c-0.586,1.852-0.333,2.235,0.003,2.494l0.238,0.174h0.274  c0.5,0,0.895-0.306,1.425-1.864l0.115-0.344c0.285-0.836,0.637-2.186,0.787-3.01C91.657,61.384,91.711,59.98,91.622,59.062z"></path><path d="M77.825,72.15c-0.104,0-0.206,0.034-0.293,0.1c-0.225,0.168-0.46,0.491-0.56,0.768c-0.004,0.012-0.014,0.021-0.021,0.027  c-0.105-0.031-0.331-0.148-0.482-0.281c-0.104-0.092-0.353-0.522-0.49-0.965c-0.177-0.568-0.633-1.176-1.062-1.412  c-0.129-0.07-0.283-0.105-0.46-0.105c-0.506,0-1.211,0.302-1.795,0.77l-0.119,0.095c-0.684,0.547-1.666,1.562-2.193,2.267  c-0.394,0.527-0.744,0.842-0.896,0.937c-0.224-0.062-0.515-0.094-0.719-0.073c-0.188,0.019-0.343,0.125-0.426,0.292  c-0.165,0.332,0.029,0.741,0.16,0.956c0.21,0.344,0.634,0.801,1.004,0.971c0.127,0.057,0.263,0.086,0.404,0.086  c0.337,0,0.653-0.167,0.813-0.423c0.102-0.109,0.695-0.397,1.518-0.578l0.028-0.006c0.806-0.178,2.133-0.334,2.957-0.35l1.343-0.024  c1.065-0.02,1.932-0.755,1.932-1.638C78.468,72.611,78.257,72.15,77.825,72.15z"></path><path d="M89.407,73.929c-0.501-0.848-0.773-0.964-0.993-0.964c-0.131,0-0.252,0.053-0.34,0.148c-0.159,0.174-0.139,0.41-0.132,0.488  c0.028,0.34-0.074,0.89-0.221,1.176c-0.079,0.155-0.688,0.526-1.518,0.652c-0.353,0.055-0.796,0.084-1.247,0.084  c-0.497,0-0.95-0.036-1.242-0.1c-0.149-0.031-0.273-0.047-0.38-0.047c-0.414,0-0.536,0.248-0.568,0.355  c-0.119,0.38,0.24,0.689,0.606,0.941c0.669,0.46,1.786,0.919,2.543,1.045c0.712,0.118,1.938,0.218,2.736,0.224h0.023  c0.824,0,1.779-0.283,1.929-0.904c0.135-0.561-0.334-1.639-0.682-2.227L89.407,73.929z M88.676,77.528L88.676,77.528L88.676,77.528  L88.676,77.528z"></path></svg>