<svg height='100px' width='100px'  fill="#000000" xmlns="http://www.w3.org/2000/svg" xmlns:xlink="http://www.w3.org/1999/xlink" version="1.1" x="0px" y="0px" viewBox="0 0 100 100" enable-background="new 0 0 100 100" xml:space="preserve"><path d="M79.589,55.909l-1.717-3.8c-0.571-1.268-1.887-2.131-3.081-2.022c-0.048-0.052-0.104-0.153-0.126-0.288l-1.081-5.992  c-0.253-1.395-1.494-2.627-2.897-2.863L68.86,40.64c-0.239-0.039-0.505-0.34-0.514-0.588l-0.941-25.67  c-0.044-1.237-0.814-2.75-1.787-3.517l-4.763-3.747c-0.609-0.484-1.464-0.763-2.335-0.763c-0.623,0-1.212,0.139-1.704,0.401  l-3.76,2.009c-0.379,0.2-1.024,0.349-1.534,0.349c-0.166,0-0.266-0.018-0.309-0.026c-0.227-0.048-0.693-0.475-0.815-0.889L50.041,7  c-0.41-1.39-1.817-2.44-3.268-2.44h-0.475c-1.298,0-2.811,0.819-3.521,1.909l-8.545,13.116c-0.623,0.958-1.042,2.536-0.972,3.673  l0.192,3.277c0.043,0.714-0.096,1.943-0.296,2.632l-1.834,6.362c-0.183,0.636-0.758,1.66-1.203,2.148l-9.656,10.567  c-0.806,0.88-1.39,2.449-1.36,3.643l0.85,33.915c0.03,1.133,0.566,2.671,1.246,3.577l0.109,0.148  c0.414,0.545,0.789,1.477,0.836,1.913c0.14,1.225,1.242,2.457,2.567,2.858l0.418,0.131c0.283,0.087,0.583,0.131,0.884,0.131  c0,0,0,0,0.004,0c1.207,0,2.34-0.672,2.88-1.704l6.493-12.345c0.091-0.175,0.401-0.292,0.584-0.223l1.011,0.379  c0.458,0.17,1.007,0.262,1.59,0.262c0.859,0,1.713-0.196,2.34-0.536l6.789-3.695c1.081-0.592,2.1-1.943,2.366-3.146l1.15-5.181  c0.092-0.414,0.571-0.907,0.88-0.998c0.026-0.009,0.083-0.022,0.179-0.022c0.335,0,0.745,0.166,0.928,0.375l3.443,3.935  c0.57,0.654,1.42,1.028,2.322,1.028c0.627,0,1.225-0.183,1.726-0.527l17.796-12.314C79.72,58.998,80.199,57.269,79.589,55.909z"></path></svg>