<svg height='100px' width='100px'  fill="#000000" xmlns="http://www.w3.org/2000/svg" xmlns:xlink="http://www.w3.org/1999/xlink" version="1.1" x="0px" y="0px" viewBox="0 0 100 100" enable-background="new 0 0 100 100" xml:space="preserve"><path d="M73.072,79.691l-0.155-0.089c-0.341-0.203-0.69-0.832-0.682-1.231l0.013-0.434c0.026-1.201-0.54-2.795-1.32-3.703  l-2.099-2.449c-0.381-0.443-0.767-1.418-0.793-2.002l-2.812-61.9c-0.062-1.338-1.01-2.308-2.255-2.308  c-0.39,0-0.779,0.097-1.165,0.283l-1.032,0.509c-0.425,0.208-1.377,0.252-1.768,0.098c-0.327-0.128-0.673-0.195-1.026-0.195  c-1.179,0-2.26,0.749-2.698,1.869l-5.855,15.029c-0.372,0.965-0.669,2.529-0.669,3.565v10.95c0,0.204-0.208,0.438-0.412,0.465  l-6.666,0.802c-1.577,0.19-2.75,1.581-2.684,3.163l0.15,3.282c0.027,0.664-0.199,1.82-0.478,2.427l-6.71,14.537  c-0.421,0.912-0.855,2.409-0.988,3.41l-2.48,18.728c-0.075,0.562-0.554,1.483-0.966,1.869l-0.854,0.793  c-1.161,1.076-1.267,2.933-0.235,4.133l1.51,1.758c0.806,0.943,2.356,1.684,3.597,1.719l26.098,0.802  c0.054,0.005,0.103,0.005,0.155,0.005c1.094,0,2.564-0.337,3.499-0.802l8.394-4.177c1.055-0.527,2.219-1.724,2.711-2.795l1.913-4.15  C74.964,82.229,74.423,80.488,73.072,79.691z"></path></svg>