<svg height='100px' width='100px'  fill="#000000" xmlns="http://www.w3.org/2000/svg" xmlns:xlink="http://www.w3.org/1999/xlink" version="1.1" x="0px" y="0px" viewBox="0 0 100 100" enable-background="new 0 0 100 100" xml:space="preserve"><path d="M55.824,54.452l-1.3-2.961l1.137-0.159c0.637-0.091,1.194-0.424,1.575-0.941c0.376-0.514,0.528-1.147,0.423-1.78  l-1.281-7.699c-0.054-0.322,0.159-0.876,0.409-1.079l2.617-2.11c0.34-0.275,1.111-0.524,1.564-0.496l1.245,0.08  c0.152,0.011,0.315,0.178,0.318,0.333l0.105,3.862c0.037,1.332,1.169,2.356,2.527,2.223l1.65-0.163  c1.26-0.123,2.273-1.216,2.31-2.483l0.13-4.923c0.029-1.039-0.543-2.327-1.328-3.004L63.4,29.252  c-0.326-0.275-0.666-0.967-0.691-1.39l-0.493-8.449c-0.072-1.212-1.035-2.128-2.24-2.128c-0.127,0-0.253,0.011-0.38,0.032  l-0.681,0.131c0,0-0.003-0.015-0.003-0.044V7.346C58.912,6.05,57.858,5,56.566,5L27.659,5.97c-1.296,0.044-2.353,1.137-2.356,2.433  L25.22,65.181c0,0.229-0.243,0.551-0.463,0.612l-0.93,0.264c-1.166,0.33-2.045,1.491-2.045,2.7v0.163  c0,0.978,0.507,2.227,1.455,2.711c0.109,0.08,0.308,0.446,0.308,0.801v0.832c0,0.366-0.304,0.956-0.604,1.166l-1.129,0.789  c-0.869,0.615-1.528,1.839-1.528,2.849c0,1.089,0.807,1.915,1.875,1.915c0.268,0,0.543-0.051,0.814-0.156l7.667-2.903  c0.641-0.242,1.737-0.611,2.396-0.807l12.894-3.841c0.481-0.141,1.484-0.174,1.969-0.062l1.781,0.405  c0.174,0.04,0.355,0.062,0.536,0.062c1.107,0,2.077-0.745,2.36-1.81l3.5-13.252C56.32,56.692,56.211,55.332,55.824,54.452z"></path><path d="M79.696,57.568l-1.911-14.265c-0.148-1.126-1.079-2.233-2.157-2.581l-1.926-0.615c-0.243-0.076-0.492-0.116-0.753-0.116  c-0.996,0-1.94,0.59-2.356,1.474l-0.449,0.959c-0.199,0.428-0.792,1.028-1.216,1.234l-2.298,1.122  c-0.901,0.438-1.821,1.484-2.146,2.429l-3.124,9.172c-0.296,0.869-0.362,2.201-0.155,3.096l0.058,0.253  c0.062,0.261-0.116,0.71-0.337,0.858l-1.394,0.948c-0.952,0.647-0.898,1.411-0.833,1.712c0.069,0.301,0.347,1.014,1.488,1.188  l2.765,0.42c0.123,0.021,0.253,0.028,0.384,0.028c1.083,0,2.154-0.662,2.606-1.614l1-2.106c0.347-0.724,0.746-1.908,0.912-2.693  l1.868-8.824c0.051-0.239,0.369-0.521,0.608-0.547l0.232-0.021c0.072,0,0.112,0.043,0.116,0.123l0.253,12.01  c0.021,1.097,0.774,1.896,1.788,1.896c0.329,0,0.659-0.083,0.981-0.249l4.434-2.292C79.179,60.022,79.852,58.734,79.696,57.568z"></path><path d="M59.821,58.795l-0.186-6.269c-0.008-0.261-0.078-1.572-0.676-1.755c-0.046-0.015-0.095-0.021-0.144-0.021  c-0.602,0-0.961,1.071-1.057,1.399l-0.575,1.972c-0.224,0.766-0.194,1.932,0.067,2.654c0.191,0.53,0.066,1.395-0.268,1.849  c-0.455,0.62-0.812,1.729-0.812,2.526v1.152c0,0.957,0.579,1.005,0.695,1.005c0.261,0,0.525-0.155,0.786-0.462l1.28-1.509  C59.455,60.72,59.846,59.604,59.821,58.795z"></path><path d="M60.369,48.311c-0.129,0.9,0.218,1.744,0.81,1.965c0.098,0.036,0.2,0.055,0.305,0.055l0,0c0.547,0,1.091-0.513,1.321-1.245  l0.588-1.869c0.258-0.822-0.04-1.918-0.678-2.494l-1.083-0.979c-0.529-0.479-0.762-1.046-0.733-1.204  c0.1-0.548-0.221-1.099-0.716-1.229c-0.481-0.127-1.1,0.268-1.399,0.887c-0.296,0.613-0.003,1.549,0.667,2.128l0.493,0.427  c0.445,0.385,0.762,1.234,0.678,1.817L60.369,48.311z"></path><path d="M45.526,90.338c-0.246-0.352-0.409-1.107-0.333-1.531l0.13-0.706c0.178-0.955-0.007-2.236-0.833-2.783  c-0.253-0.17-0.557-0.257-0.875-0.257c-0.699,0-1.444,0.416-1.991,1.115l-1.3,1.657c-0.59,0.753-1.035,2.042-1.035,3.001v1.263  c0,0.312,0.043,1.896,0.913,2.513C40.571,94.869,41.143,95,41.906,95c0.275,0,0.55-0.018,0.818-0.055l1.061-0.145  c0.941-0.13,2.056-0.633,2.429-1.473c0.376-0.844-0.007-2.009-0.554-2.791L45.526,90.338z"></path></svg>