<svg height='100px' width='100px'  fill="#000000" xmlns="http://www.w3.org/2000/svg" xmlns:xlink="http://www.w3.org/1999/xlink" version="1.1" x="0px" y="0px" viewBox="0 0 100 100" enable-background="new 0 0 100 100" xml:space="preserve"><path d="M76.616,8.481c0.277-0.801,0.181-1.621-0.269-2.254c-0.445-0.634-1.189-1-2.035-1.004L27.49,4.95  c-1.568,0-2.893,1.22-3.025,2.783l-0.956,11.572c-0.084,0.991,0,2.528,0.194,3.501l1.929,9.851c0.141,0.713,0.171,1.964,0.066,2.677  l-2.955,20.053c-0.194,1.339,0.476,2.96,1.559,3.771l1.202,0.894c0.357,0.265,0.7,0.986,0.687,1.431l-0.995,29.747  c-0.053,1.603,1.207,2.949,2.805,3.003l20.833,0.717h0.119c1.325,0,1.797-0.774,1.938-1.109c0.146-0.334,0.375-1.229-0.581-2.215  l-1.585-1.634c-0.291-0.299-0.493-1.044-0.396-1.448l12.85-53.724c0.11-0.467,0.661-1.163,1.092-1.378l10.146-5.064  c1.264-0.63,2.132-2.167,2.021-3.571l-0.537-6.896c-0.053-0.683,0.105-1.894,0.33-2.541L76.616,8.481z"></path></svg>